<svg width="69" height="50" viewBox="0 0 69 50" fill="none" xmlns="http://www.w3.org/2000/svg">
<g clip-path="url(#clip0_251_19)">
<path d="M34.0721 50C30.8095 50 27.7946 49.7942 25.0275 49.3827C22.2605 48.9712 19.6999 48.3745 17.3458 47.5926C15.033 46.8107 12.9474 45.8642 11.0889 44.7531C9.27175 43.642 7.66107 42.3868 6.25688 40.9877C4.8527 39.5885 3.67566 38.0658 2.72577 36.4198C1.81718 34.7325 1.13574 32.9424 0.681443 31.0494C0.227148 29.1564 0 27.1605 0 25.0617C0 21.6461 0.557544 18.5802 1.67263 15.8642C2.78772 13.1481 4.3571 10.8025 6.38078 8.82716C8.44576 6.85185 10.8824 5.20576 13.6908 3.88889C16.5405 2.57202 19.6792 1.60494 23.1071 0.987653C26.535 0.329218 30.19 0 34.0721 0C40.9279 0 46.7511 0.823045 51.5419 2.46914C56.3326 4.11523 60.1115 6.48148 62.8786 9.5679C65.687 12.6543 67.4422 16.3992 68.1443 20.8025L41.8158 25.0617C41.8158 24.1152 41.6093 23.3128 41.1963 22.6543C40.7833 21.9547 40.2258 21.3992 39.5237 20.9877C38.8216 20.5761 37.9956 20.2675 37.0457 20.0617C36.1371 19.856 35.1459 19.7531 34.0721 19.7531C32.5854 19.7531 31.2638 19.9588 30.1074 20.3704C28.951 20.7407 28.0218 21.3169 27.3197 22.0988C26.6589 22.8395 26.3285 23.786 26.3285 24.9383C26.3285 25.6379 26.4524 26.2757 26.7002 26.8519C26.948 27.428 27.299 27.9424 27.7533 28.3951C28.2076 28.8066 28.7445 29.1564 29.364 29.4444C30.0248 29.6914 30.7475 29.8971 31.5322 30.0617C32.3169 30.1852 33.1636 30.2469 34.0721 30.2469C36.261 30.2469 38.0989 29.8148 39.5856 28.9506C41.0724 28.0453 41.8158 26.749 41.8158 25.0617L68.1443 27.716C67.69 30.7613 66.6782 33.6214 65.1088 36.2963C63.5807 38.9712 61.4331 41.3374 58.666 43.3951C55.9403 45.4527 52.5331 47.0576 48.4444 48.2099C44.397 49.4033 39.6063 50 34.0721 50Z" fill="#DE7530"/>
</g>
<defs>
<clipPath id="clip0_251_19">
<rect width="68.14" height="50" fill="white"/>
</clipPath>
</defs>
</svg>
