<svg width="207" height="168" viewBox="0 0 207 168" fill="none" xmlns="http://www.w3.org/2000/svg">
<path d="M16.4365 16.3778C28.5562 10.9185 41.6721 6.86543 55.7842 4.21852C70.0623 1.40617 84.3403 0 98.6184 0C112.564 0 126.012 1.32346 138.962 3.97038C151.912 6.61729 163.451 10.6704 173.578 16.1296C183.872 21.5889 192.007 28.3716 197.984 36.4778C203.961 44.584 206.949 54.0963 206.949 65.0148C206.949 81.0617 206.949 97.1086 206.949 113.156C206.949 129.202 206.949 145.249 206.949 161.296C201.138 161.296 195.327 161.296 189.517 161.296C183.706 161.296 177.895 161.296 172.084 161.296C166.273 161.296 160.462 161.296 154.652 161.296C148.841 161.296 143.03 161.296 137.219 161.296C131.408 161.296 125.597 161.296 119.786 161.296C119.786 152.528 119.786 143.843 119.786 135.241C119.786 126.473 119.786 117.788 119.786 109.185C119.786 106.207 118.79 103.809 116.798 101.989C114.806 100.169 112.398 98.9284 109.576 98.2667C106.754 97.4395 103.931 97.0259 101.109 97.0259C94.7998 97.0259 89.9851 98.2667 86.6646 100.748C83.5102 103.23 81.933 106.042 81.933 109.185C81.933 112.328 83.5932 115.223 86.9137 117.87C90.2342 120.352 94.9658 121.593 101.109 121.593C104.097 121.593 107.501 121.014 111.319 119.856C115.138 118.698 118.043 115.72 120.036 110.922C116.549 119.028 112.979 127.135 109.327 135.241C105.84 143.347 102.354 151.453 98.8674 159.559C92.8906 162.537 86.5816 164.605 79.9407 165.763C73.4657 167.086 66.9908 167.748 60.5159 167.748C52.7127 167.748 45.1586 166.673 37.8536 164.522C30.7145 162.537 24.2396 159.559 18.4287 155.589C12.7839 151.619 8.30126 146.656 4.98077 140.7C1.66029 134.744 0 127.796 0 119.856C0 115.058 0.830114 110.343 2.49036 105.711C4.1506 101.079 6.641 96.6951 9.96149 92.5593C13.282 88.4235 17.4325 84.784 22.4133 81.6407C27.56 78.4975 33.6199 76.0988 40.593 74.4444C47.566 72.6247 55.5352 71.7148 64.5005 71.7148C70.3113 71.7148 75.9561 72.2111 81.4349 73.2037C86.9137 74.0309 92.0604 75.3543 96.8751 77.1741C101.856 78.9938 106.255 81.2272 110.074 83.8741C114.059 86.521 117.296 89.4988 119.786 92.8074C119.786 92.4765 119.786 92.2284 119.786 92.063C119.786 91.7321 119.786 91.4839 119.786 91.3185C119.786 90.9877 119.786 90.7395 119.786 90.5741C119.786 85.4457 118.458 81.0617 115.802 77.4222C113.312 73.6173 109.825 70.5568 105.342 68.2407C101.026 65.7593 95.962 63.9395 90.1511 62.7815C84.5063 61.6235 78.5295 61.0444 72.2206 61.0444C62.4251 61.0444 52.5467 62.2852 42.5852 64.7667C32.6237 67.2481 23.9076 70.8877 16.4365 75.6852V16.3778Z" fill="#DE7530"/>
</svg>
