<svg width="41" height="30" viewBox="0 0 41 30" fill="none" xmlns="http://www.w3.org/2000/svg">
  <g clipPath="url(#clip0_251_19)">
    <path d="M20.4433 30C18.4857 30 16.6768 29.8765 15.0165 29.6296C13.3563 29.3827 11.8199 29.0247 10.4075 28.5556C9.01983 28.0864 7.76845 27.5185 6.65336 26.8519C5.56305 26.1852 4.59664 25.4321 3.75413 24.5926C2.91162 23.7531 2.2054 22.8395 1.63546 21.8519C1.09031 20.8395 0.681443 19.7654 0.408866 18.6296C0.136289 17.4938 0 16.2963 0 15.037C0 12.9877 0.334526 11.1481 1.00358 9.51852C1.67263 7.88889 2.61426 6.48148 3.82847 5.2963C5.06746 4.11111 6.52946 3.12346 8.21448 2.33333C9.92429 1.54321 11.8075 0.962963 13.8643 0.592592C15.921 0.19753 18.114 0 20.4433 0C24.5567 0 28.0507 0.493827 30.9251 1.48148C33.7996 2.46914 36.0669 3.88889 37.7272 5.74074C39.4122 7.59259 40.4653 9.83951 40.8866 12.4815L25.0895 15.037C25.0895 14.4691 24.9656 13.9877 24.7178 13.5926C24.47 13.1728 24.1355 12.8395 23.7142 12.5926C23.293 12.3457 22.7974 12.1605 22.2274 12.037C21.6823 11.9136 21.0876 11.8519 20.4433 11.8519C19.5512 11.8519 18.7583 11.9753 18.0644 12.2222C17.3706 12.4444 16.8131 12.7901 16.3918 13.2593C15.9953 13.7037 15.7971 14.2716 15.7971 14.963C15.7971 15.3827 15.8714 15.7654 16.0201 16.1111C16.1688 16.4568 16.3794 16.7654 16.652 17.037C16.9246 17.2839 17.2467 17.4938 17.6184 17.6667C18.0149 17.8148 18.4485 17.9383 18.9193 18.037C19.3902 18.1111 19.8981 18.1481 20.4433 18.1481C21.7566 18.1481 22.8593 17.8889 23.7514 17.3704C24.6435 16.8272 25.0895 16.0494 25.0895 15.037L40.8866 16.6296C40.614 18.4568 40.0069 20.1728 39.0653 21.7778C38.1484 23.3827 36.8599 24.8025 35.1996 26.037C33.5642 27.2716 31.5198 28.2346 29.0666 28.9259C26.6382 29.642 23.7638 30 20.4433 30Z" fill="#DE7530"/>
  </g>
  <defs>
    <clipPath id="clip0_251_19">
      <rect width="40.884" height="30" fill="white"/>
    </clipPath>
  </defs>
</svg>
