<svg width="220" height="169" viewBox="0 0 220 169" fill="none" xmlns="http://www.w3.org/2000/svg">
<path d="M112.564 105.215C121.364 105.215 128.171 103.643 132.985 100.5C137.8 97.3568 140.29 93.0556 140.457 87.5963L217.409 112.659C214.42 123.081 208.028 132.594 198.233 141.196C188.604 149.633 176.401 156.333 161.625 161.296C146.848 166.259 130.329 168.741 112.066 168.741C96.4601 168.741 81.85 167.004 68.236 163.53C54.788 160.056 42.9173 154.844 32.6238 147.896C22.4963 140.783 14.5271 131.932 8.71628 121.344C2.90543 110.757 0 98.4321 0 84.3704C0 70.3086 2.90543 57.9839 8.71628 47.3963C14.5271 36.8086 22.4963 28.0407 32.6238 21.0926C42.9173 13.979 54.871 8.68519 68.485 5.21112C82.099 1.73704 96.6261 0 112.066 0C127.839 0 142.283 1.73704 155.399 5.21112C168.681 8.68519 180.053 14.0617 189.517 21.3407C199.146 28.4543 206.534 37.5531 211.681 48.637C216.994 59.5556 219.65 72.542 219.65 87.5963H83.9253C83.9253 87.5963 83.8423 87.5963 83.6762 87.5963C83.6762 87.5963 83.6762 87.679 83.6762 87.8444C83.6762 90.3259 84.3403 92.642 85.6685 94.7926C86.9967 96.9432 88.823 98.8457 91.1473 100.5C93.6377 101.989 96.6261 103.147 100.113 103.974C103.765 104.801 107.916 105.215 112.564 105.215ZM112.066 62.7815C103.931 62.7815 97.2072 64.2704 91.8944 67.2482C86.5817 70.0605 83.9253 74.1136 83.9253 79.4074C83.9253 79.5728 83.9253 79.7383 83.9253 79.9037C84.0913 79.9037 84.1743 79.9037 84.1743 79.9037H139.709C139.875 79.9037 139.958 79.9037 139.958 79.9037C139.958 79.7383 139.958 79.5728 139.958 79.4074C139.958 76.7605 139.211 74.4445 137.717 72.4593C136.389 70.3086 134.48 68.5716 131.989 67.2482C129.499 65.7593 126.51 64.684 123.024 64.0222C119.704 63.1951 116.051 62.7815 112.066 62.7815Z" fill="#DE7530"/>
</svg>
