<svg width="87" height="154" viewBox="0 0 87 154" fill="none" xmlns="http://www.w3.org/2000/svg">
<path d="M0 153.852C0 146.242 0 138.715 0 131.27C0 123.66 0 116.133 0 108.689C0 101.079 0 93.5518 0 86.1074C0 82.9642 0 79.821 0 76.6778C0 73.5346 0 70.3914 0 67.2481C9.62941 67.2481 19.1758 67.2481 28.6392 67.2481C38.2686 67.2481 47.898 67.2481 57.5274 67.2481C67.1568 67.2481 76.7032 67.2481 86.1666 67.2481C86.1666 76.8432 86.1666 86.4383 86.1666 96.0333C86.1666 105.628 86.1666 115.306 86.1666 125.067C86.1666 134.662 86.1666 144.257 86.1666 153.852H0ZM0 67.2481C0 55.9988 0 44.7494 0 33.5C0 22.2506 0 11.0839 0 0H86.1666C86.1666 5.45926 86.1666 10.9185 86.1666 16.3778C86.1666 21.837 86.1666 27.2963 86.1666 32.7555C86.1666 38.2148 86.1666 43.6741 86.1666 49.1333C86.1666 49.1333 86.0836 49.216 85.9175 49.3815C71.6395 52.3593 57.2783 55.337 42.8342 58.3148C28.5561 61.2926 14.2781 64.2704 0 67.2481Z" fill="#DE7530"/>
</svg>
